<?xml version="1.0" encoding="UTF-8"?><svg id="Calque_2" xmlns="http://www.w3.org/2000/svg" xmlns:xlink="http://www.w3.org/1999/xlink" viewBox="0 0 1178.46 842.17"><defs><style>.cls-1{fill:url(#Dégradé_sans_nom_5);}.cls-2{fill:url(#Dégradé_sans_nom_5-4);}.cls-3{fill:url(#Dégradé_sans_nom_5-2);}.cls-4{fill:url(#Dégradé_sans_nom_5-3);}.cls-5{fill:url(#Dégradé_sans_nom_5-5);}</style><linearGradient id="Dégradé_sans_nom_5" x1="59.74" y1="385.19" x2="1123.76" y2="385.19" gradientTransform="translate(0 806.27) scale(1 -1)" gradientUnits="userSpaceOnUse"><stop offset="0" stop-color="#887535"/><stop offset=".63" stop-color="#e5cc90"/><stop offset="1" stop-color="#887535"/></linearGradient><linearGradient id="Dégradé_sans_nom_5-2" x1="771.66" y1="483.25" x2="1120.96" y2="483.25" xlink:href="#Dégradé_sans_nom_5"/><linearGradient id="Dégradé_sans_nom_5-3" x1="72.37" y1="390.32" x2="392.21" y2="390.32" xlink:href="#Dégradé_sans_nom_5"/><linearGradient id="Dégradé_sans_nom_5-4" x1="0" y1="269.44" x2="464.43" y2="269.44" xlink:href="#Dégradé_sans_nom_5"/><linearGradient id="Dégradé_sans_nom_5-5" x1="714.02" y1="402.01" x2="1178.46" y2="402.01" xlink:href="#Dégradé_sans_nom_5"/></defs><g id="Calque_1-2"><g id="Calque_1-3"><g><path class="cls-1" d="M636.99,71.34c169.74-9.12,333.63,2.34,486.77,31.1C976.47,26.21,785.69-12.36,580.88,3.53,376.07,19.2,193.71,86.53,59.74,184.26c150.57-53.31,315.63-90.25,489.81-106.61V474.4c0,179.79-170.21,312.12-343.92,265.83-1.17-.23-2.1-.47-3.27-.94,103.34,63.83,240.58,102.87,390.91,102.87s287.57-38.81,390.91-102.87h0c-174.88,48.86-347.19-83.93-347.19-264.89V71.34Z"/><path class="cls-3" d="M928.77,438.4l-155.71-175.35h77.86l77.85,175.35Zm-66.87-175.35l84.4,190.31,84.4-190.31h-168.8Zm179.79,0l-77.86,175.35,155.71-175.35h-77.85Zm36.71-70.37h-67.8l30.86,60.32h79.49l-42.55-60.32Zm-78.79,0h-106.38l-30.86,60.32h168.1l-30.86-60.32Zm-185.4,0l-42.55,60.32h79.49l30.86-60.32h-67.8Z"/><path class="cls-4" d="M322.3,527.48c6.55-7.01,9.82-13.09,10.75-18.47,.47-2.57,.23-5.14-.47-7.25-.7-2.1-2.1-3.97-3.74-5.61-3.51-3.27-8.65-5.61-14.5-6.55-15.43-2.57-38.58-.47-64.29,1.87-51.9,4.68-112.92,10.29-148.7-17.53,7.25,16.37,17.3,30.86,29.69,43.49,25.95,25.95,61.72,41.85,101.23,41.85,34.13,0,65.46-11.92,90.01-31.8m-233.1-105.91c13.09,66.63,94.22,59.38,159.45,53.54,26.89-2.34,51.2-4.68,68.74-1.64,8.88,1.64,17.3,5.38,23.15,10.99,3.51,3.51,6.31,7.48,7.95,12.16,.23,.94,.47,1.64,.7,2.57,6.55-9.12,11.92-18.94,16.13-29.46,2.1-34.13-21.28-45.59-54.48-48.16-23.61-1.87-51.9,.47-79.96,2.81-38.81,3.27-77.39,6.31-104.98-1.4-16.37-4.44-28.76-12.39-35.3-25.48-.7,6.08-1.17,12.16-1.17,18.47-.47,1.87-.47,3.74-.23,5.61Zm285.23-22.68c-32.5-78.09-118.54-66.4-178.15-58.22-10.75,1.4-20.81,2.81-28.76,3.51-11.69,.94-21.98-.47-29.69-3.97-6.08-2.57-10.75-6.55-13.56-11.46-.94-1.4-1.4-2.81-2.1-4.44-6.31,7.48-11.92,15.9-16.6,24.78-9.59,35.54,2.1,51.44,24.55,57.75,24.55,6.78,61.72,3.74,99.13,.7,28.76-2.34,57.75-4.68,82.76-2.81,28.52,2.34,51.2,9.82,62.66,28.52,.7-5.61,.94-11.46,.94-17.3,0-5.61-.47-11.46-1.17-17.07Zm-229.36-96.33c-4.21,4.68-6.55,8.65-7.25,12.16-.47,2.34-.23,4.21,.7,5.84,1.17,1.87,3.04,3.27,5.84,4.68,5.38,2.34,12.63,3.27,21.51,2.57,8.65-.7,18-2.1,28.06-3.51,50.5-7.01,118.07-16.13,163.43,21.98-6.55-11.46-14.5-22.21-23.85-31.33-25.95-25.95-61.72-41.85-101.23-41.85-32.97-.23-63.13,10.75-87.21,29.46Zm87.21-46.53c44.19,0,84.17,18,113.16,46.76,28.99,28.99,46.76,68.97,46.76,113.16s-18,84.17-46.76,113.16c-28.99,28.99-68.97,46.76-113.16,46.76s-84.17-18-113.16-46.76c-28.99-28.99-46.76-68.97-46.76-113.16s18-84.17,46.99-113.16c28.76-28.76,68.74-46.76,112.92-46.76Z"/><path class="cls-2" d="M1.29,413.15c6.78,60.55,34.6,115.5,76.69,154.07,42.32,38.58,97.96,60.32,154.07,60.09,56.35,0,111.99-21.51,154.07-60.09,42.08-38.58,69.91-93.52,76.92-154.07,3.74,30.16-.23,61.72-10.05,91.42-10.29,29.69-26.65,57.51-48.4,80.89-21.51,23.61-48.4,42.55-78.09,55.41-29.69,12.86-61.96,19.64-94.45,19.64s-64.76-6.78-94.45-19.64c-29.69-12.86-56.58-31.8-78.09-55.41-21.74-23.38-38.11-51.2-48.4-80.89-9.59-29.69-13.33-61.26-9.82-91.42Z"/><path class="cls-5" d="M715.32,280.59c6.78,60.55,34.6,115.5,76.69,154.07,42.32,38.58,97.96,60.32,154.07,60.09,56.35,0,111.99-21.51,154.07-60.09s69.91-93.52,76.92-154.07c3.74,30.16-.23,61.72-10.05,91.42-10.29,29.69-26.65,57.51-48.4,80.89-21.51,23.61-48.4,42.55-78.09,55.41-29.69,12.86-61.96,19.64-94.45,19.64s-64.76-6.78-94.45-19.64c-29.69-12.86-56.35-31.8-78.09-55.41-21.74-23.38-38.11-51.2-48.4-80.89-9.59-29.69-13.33-61.02-9.82-91.42Z"/></g></g></g></svg>